<mxfile host="drawio-plugin" modified="2024-02-06T10:32:24.227Z" agent="5.0 (Windows NT 10.0; Win64; x64) AppleWebKit/537.36 (KHTML, like Gecko) Chrome/111.0.0.0 Safari/537.36" etag="Mc84g0V89CFG_Wi51fU3" version="20.5.3" type="embed"><diagram id="23iRSUPoRavnBvh4doch" name="Page-1"><mxGraphModel dx="1420" dy="715" grid="1" gridSize="10" guides="1" tooltips="1" connect="1" arrows="1" fold="1" page="1" pageScale="1" pageWidth="827" pageHeight="1169" math="0" shadow="0"><root><mxCell id="0"/><mxCell id="1" parent="0"/><mxCell id="2" value="&lt;div style=&quot;box-sizing:border-box;width:100%;background:#e4e4e4;padding:2px;&quot;&gt;&lt;font color=&quot;#000000&quot;&gt;users&lt;/font&gt;&lt;/div&gt;&lt;table style=&quot;width:100%;font-size:1em;&quot; cellpadding=&quot;2&quot; cellspacing=&quot;0&quot;&gt;&lt;tbody&gt;&lt;tr&gt;&lt;td&gt;PK&lt;/td&gt;&lt;td&gt;id&lt;/td&gt;&lt;/tr&gt;&lt;tr&gt;&lt;td&gt;&lt;br&gt;&lt;/td&gt;&lt;td&gt;name&lt;/td&gt;&lt;/tr&gt;&lt;tr&gt;&lt;td&gt;&lt;/td&gt;&lt;td&gt;email&lt;br&gt;List&amp;lt;posts&amp;gt;&lt;br&gt;List&amp;lt;channels&amp;gt;&lt;/td&gt;&lt;/tr&gt;&lt;/tbody&gt;&lt;/table&gt;" style="verticalAlign=top;align=left;overflow=fill;html=1;whiteSpace=wrap;" parent="1" vertex="1"><mxGeometry x="330" y="400" width="140" height="120" as="geometry"/></mxCell><mxCell id="3" value="&lt;div style=&quot;box-sizing:border-box;width:100%;background:#e4e4e4;padding:2px;&quot;&gt;&lt;font color=&quot;#000000&quot;&gt;posts&lt;/font&gt;&lt;/div&gt;&lt;table style=&quot;width:100%;font-size:1em;&quot; cellpadding=&quot;2&quot; cellspacing=&quot;0&quot;&gt;&lt;tbody&gt;&lt;tr&gt;&lt;td&gt;PK&lt;/td&gt;&lt;td&gt;id&lt;/td&gt;&lt;/tr&gt;&lt;tr&gt;&lt;td&gt;&lt;br&gt;&lt;/td&gt;&lt;td&gt;message&lt;/td&gt;&lt;/tr&gt;&lt;tr&gt;&lt;td&gt;&lt;/td&gt;&lt;td&gt;postDateTime&lt;br&gt;user&lt;br&gt;channel&lt;/td&gt;&lt;/tr&gt;&lt;/tbody&gt;&lt;/table&gt;" style="verticalAlign=top;align=left;overflow=fill;html=1;whiteSpace=wrap;" vertex="1" parent="1"><mxGeometry x="600" y="559" width="150" height="110" as="geometry"/></mxCell><mxCell id="4" value="&lt;div style=&quot;box-sizing:border-box;width:100%;background:#e4e4e4;padding:2px;&quot;&gt;&lt;font color=&quot;#000000&quot;&gt;channels&lt;/font&gt;&lt;/div&gt;&lt;table style=&quot;width:100%;font-size:1em;&quot; cellpadding=&quot;2&quot; cellspacing=&quot;0&quot;&gt;&lt;tbody&gt;&lt;tr&gt;&lt;td&gt;PK&lt;/td&gt;&lt;td&gt;id&lt;/td&gt;&lt;/tr&gt;&lt;tr&gt;&lt;td&gt;&lt;br&gt;&lt;/td&gt;&lt;td&gt;name&lt;/td&gt;&lt;/tr&gt;&lt;tr&gt;&lt;td&gt;&lt;/td&gt;&lt;td&gt;List&amp;lt;posts&amp;gt;&lt;br&gt;user&lt;/td&gt;&lt;/tr&gt;&lt;/tbody&gt;&lt;/table&gt;" style="verticalAlign=top;align=left;overflow=fill;html=1;whiteSpace=wrap;" vertex="1" parent="1"><mxGeometry x="80" y="559" width="120" height="90" as="geometry"/></mxCell><mxCell id="5" value="Relation" style="endArrow=open;html=1;endSize=12;startArrow=diamondThin;startSize=14;startFill=0;rounded=0;entryX=0.995;entryY=0.6;entryDx=0;entryDy=0;exitX=0;exitY=0.25;exitDx=0;exitDy=0;entryPerimeter=0;" edge="1" parent="1" source="3" target="2"><mxGeometry relative="1" as="geometry"><mxPoint x="680" y="496.5" as="sourcePoint"/><mxPoint x="580" y="429" as="targetPoint"/></mxGeometry></mxCell><mxCell id="6" value="0..n" style="edgeLabel;resizable=0;html=1;align=left;verticalAlign=top;" connectable="0" vertex="1" parent="5"><mxGeometry x="-1" relative="1" as="geometry"/></mxCell><mxCell id="7" value="1" style="edgeLabel;resizable=0;html=1;align=right;verticalAlign=top;" connectable="0" vertex="1" parent="5"><mxGeometry x="1" relative="1" as="geometry"/></mxCell><mxCell id="11" value="Relation" style="endArrow=open;html=1;endSize=12;startArrow=diamondThin;startSize=14;startFill=0;rounded=0;entryX=0;entryY=0.75;entryDx=0;entryDy=0;exitX=1.006;exitY=0.333;exitDx=0;exitDy=0;exitPerimeter=0;" edge="1" parent="1" source="4" target="2"><mxGeometry relative="1" as="geometry"><mxPoint x="491" y="779.5" as="sourcePoint"/><mxPoint x="370" y="609" as="targetPoint"/></mxGeometry></mxCell><mxCell id="12" value="0..n" style="edgeLabel;resizable=0;html=1;align=left;verticalAlign=top;" connectable="0" vertex="1" parent="11"><mxGeometry x="-1" relative="1" as="geometry"/></mxCell><mxCell id="13" value="1" style="edgeLabel;resizable=0;html=1;align=right;verticalAlign=top;" connectable="0" vertex="1" parent="11"><mxGeometry x="1" relative="1" as="geometry"/></mxCell><mxCell id="14" value="Relation" style="endArrow=open;html=1;endSize=12;startArrow=diamondThin;startSize=14;startFill=0;rounded=0;entryX=1;entryY=0.75;entryDx=0;entryDy=0;exitX=0;exitY=0.75;exitDx=0;exitDy=0;" edge="1" parent="1" source="3" target="4"><mxGeometry relative="1" as="geometry"><mxPoint x="361" y="869.5" as="sourcePoint"/><mxPoint x="240" y="699" as="targetPoint"/></mxGeometry></mxCell><mxCell id="15" value="0..n" style="edgeLabel;resizable=0;html=1;align=left;verticalAlign=top;" connectable="0" vertex="1" parent="14"><mxGeometry x="-1" relative="1" as="geometry"/></mxCell><mxCell id="16" value="1" style="edgeLabel;resizable=0;html=1;align=right;verticalAlign=top;" connectable="0" vertex="1" parent="14"><mxGeometry x="1" relative="1" as="geometry"/></mxCell><mxCell id="17" value="" style="rounded=0;orthogonalLoop=1;jettySize=auto;html=1;exitX=0.5;exitY=1;exitDx=0;exitDy=0;" edge="1" parent="1" source="18" target="20"><mxGeometry relative="1" as="geometry"/></mxCell><mxCell id="18" value="Channels" style="ellipse;whiteSpace=wrap;html=1;" vertex="1" parent="1"><mxGeometry x="80" y="110" width="120" height="80" as="geometry"/></mxCell><mxCell id="19" value="" style="rounded=0;orthogonalLoop=1;jettySize=auto;html=1;exitX=0.5;exitY=1;exitDx=0;exitDy=0;" edge="1" parent="1" source="18" target="22"><mxGeometry relative="1" as="geometry"/></mxCell><mxCell id="20" value="name" style="ellipse;whiteSpace=wrap;html=1;" vertex="1" parent="1"><mxGeometry x="10" y="240" width="70" height="50" as="geometry"/></mxCell><mxCell id="21" value="" style="rounded=0;orthogonalLoop=1;jettySize=auto;html=1;exitX=0.5;exitY=1;exitDx=0;exitDy=0;" edge="1" parent="1" source="18" target="23"><mxGeometry relative="1" as="geometry"/></mxCell><mxCell id="22" value="List&amp;lt;post&amp;gt;" style="ellipse;whiteSpace=wrap;html=1;" vertex="1" parent="1"><mxGeometry x="80" y="300" width="70" height="50" as="geometry"/></mxCell><mxCell id="23" value="user" style="ellipse;whiteSpace=wrap;html=1;" vertex="1" parent="1"><mxGeometry x="160" y="240" width="70" height="50" as="geometry"/></mxCell><mxCell id="24" value="" style="rounded=0;orthogonalLoop=1;jettySize=auto;html=1;exitX=0.5;exitY=1;exitDx=0;exitDy=0;" edge="1" parent="1" source="25" target="27"><mxGeometry relative="1" as="geometry"/></mxCell><mxCell id="25" value="Users" style="ellipse;whiteSpace=wrap;html=1;" vertex="1" parent="1"><mxGeometry x="320" y="110" width="120" height="80" as="geometry"/></mxCell><mxCell id="26" value="" style="rounded=0;orthogonalLoop=1;jettySize=auto;html=1;exitX=0.5;exitY=1;exitDx=0;exitDy=0;" edge="1" parent="1" source="25" target="29"><mxGeometry relative="1" as="geometry"/></mxCell><mxCell id="27" value="name" style="ellipse;whiteSpace=wrap;html=1;" vertex="1" parent="1"><mxGeometry x="250" y="240" width="70" height="50" as="geometry"/></mxCell><mxCell id="28" value="" style="rounded=0;orthogonalLoop=1;jettySize=auto;html=1;exitX=0.5;exitY=1;exitDx=0;exitDy=0;" edge="1" parent="1" source="25" target="30"><mxGeometry relative="1" as="geometry"/></mxCell><mxCell id="29" value="List&amp;lt;post&amp;gt;" style="ellipse;whiteSpace=wrap;html=1;" vertex="1" parent="1"><mxGeometry x="294" y="310" width="70" height="50" as="geometry"/></mxCell><mxCell id="30" value="email" style="ellipse;whiteSpace=wrap;html=1;" vertex="1" parent="1"><mxGeometry x="440" y="230" width="70" height="50" as="geometry"/></mxCell><mxCell id="31" value="List&amp;lt;channel&amp;gt;" style="ellipse;whiteSpace=wrap;html=1;" vertex="1" parent="1"><mxGeometry x="400" y="310" width="90" height="50" as="geometry"/></mxCell><mxCell id="32" value="" style="rounded=0;orthogonalLoop=1;jettySize=auto;html=1;entryX=0.344;entryY=0.04;entryDx=0;entryDy=0;entryPerimeter=0;" edge="1" parent="1" target="31"><mxGeometry relative="1" as="geometry"><mxPoint x="380" y="190" as="sourcePoint"/><mxPoint x="347.52808644353263" y="320.75347971936844" as="targetPoint"/></mxGeometry></mxCell><mxCell id="33" value="" style="rounded=0;orthogonalLoop=1;jettySize=auto;html=1;exitX=0.5;exitY=1;exitDx=0;exitDy=0;" edge="1" parent="1" source="34" target="36"><mxGeometry relative="1" as="geometry"/></mxCell><mxCell id="34" value="Posts" style="ellipse;whiteSpace=wrap;html=1;" vertex="1" parent="1"><mxGeometry x="610" y="110" width="120" height="80" as="geometry"/></mxCell><mxCell id="35" value="" style="rounded=0;orthogonalLoop=1;jettySize=auto;html=1;exitX=0.5;exitY=1;exitDx=0;exitDy=0;" edge="1" parent="1" source="34" target="38"><mxGeometry relative="1" as="geometry"/></mxCell><mxCell id="36" value="message" style="ellipse;whiteSpace=wrap;html=1;" vertex="1" parent="1"><mxGeometry x="540" y="240" width="70" height="50" as="geometry"/></mxCell><mxCell id="37" value="" style="rounded=0;orthogonalLoop=1;jettySize=auto;html=1;exitX=0.5;exitY=1;exitDx=0;exitDy=0;" edge="1" parent="1" source="34" target="39"><mxGeometry relative="1" as="geometry"/></mxCell><mxCell id="38" value="user" style="ellipse;whiteSpace=wrap;html=1;" vertex="1" parent="1"><mxGeometry x="584" y="310" width="70" height="50" as="geometry"/></mxCell><mxCell id="39" value="postDateTime" style="ellipse;whiteSpace=wrap;html=1;" vertex="1" parent="1"><mxGeometry x="720" y="230" width="90" height="50" as="geometry"/></mxCell><mxCell id="40" value="channel" style="ellipse;whiteSpace=wrap;html=1;" vertex="1" parent="1"><mxGeometry x="690" y="310" width="90" height="50" as="geometry"/></mxCell><mxCell id="41" value="" style="rounded=0;orthogonalLoop=1;jettySize=auto;html=1;entryX=0.344;entryY=0.04;entryDx=0;entryDy=0;entryPerimeter=0;" edge="1" parent="1" target="40"><mxGeometry relative="1" as="geometry"><mxPoint x="670" y="190" as="sourcePoint"/><mxPoint x="637.5280864435326" y="320.75347971936844" as="targetPoint"/></mxGeometry></mxCell><mxCell id="42" value="&lt;font style=&quot;font-size: 22px;&quot;&gt;Diagramme de classe projet Slack&lt;/font&gt;" style="rounded=0;whiteSpace=wrap;html=1;" vertex="1" parent="1"><mxGeometry x="40" y="20" width="750" height="60" as="geometry"/></mxCell></root></mxGraphModel></diagram></mxfile>